<svg width="1441" height="821" viewBox="0 0 1441 821" fill="none" xmlns="http://www.w3.org/2000/svg">
<rect width="1440" height="585" fill="#6F13E3"/>
<path fill-rule="evenodd" clip-rule="evenodd" d="M0 765.279L60.0417 747.251C120.083 729.223 240.167 693.167 360.25 693.167C480.333 693.167 600.417 729.223 720.5 759.269C840.583 789.316 960.667 813.353 1080.75 819.362C1200.83 825.372 1320.92 813.353 1380.96 807.344L1441 801.334V585H1380.96C1320.92 585 1200.83 585 1080.75 585C960.667 585 840.583 585 720.5 585C600.417 585 480.333 585 360.25 585C240.167 585 120.083 585 60.0417 585H0V765.279Z" fill="#6F13E3"/>
</svg>
