<svg width="352" height="352" viewBox="0 0 352 352" fill="none" xmlns="http://www.w3.org/2000/svg">
<circle cx="176" cy="176" r="176" fill="white" fill-opacity="0.5"/>
<g clip-path="url(#clip0)">
<path d="M91.6033 229.888C91.6033 241.981 84.432 246.203 75.5864 246.203C75.3805 246.203 75.1757 246.201 74.9719 246.196C74.5623 246.187 74.156 246.169 73.7552 246.14C65.7713 245.574 59.5685 241.134 59.5685 229.888C59.5685 218.251 74.4009 203.566 75.5196 202.476L75.5219 202.475C75.5642 202.432 75.5864 202.411 75.5864 202.411C75.5864 202.411 91.6033 217.795 91.6033 229.888Z" fill="#3F3D56"/>
<path d="M75.0019 244.353L80.8607 236.148L74.9874 245.254L74.9718 246.196C74.5622 246.187 74.1559 246.169 73.7551 246.14L74.3863 234.042L74.3818 233.948L74.393 233.93L74.452 232.787L68.5642 223.658L74.4698 231.93L74.4843 232.173L74.9618 223.032L69.9212 213.599L75.023 221.426L75.5195 202.476L75.5218 202.411V202.475L75.4394 217.418L80.4566 211.494L75.4182 218.705L75.2857 226.89L79.9712 219.036L75.2657 228.095L75.1923 232.645L81.994 221.712L75.1667 234.233L75.0019 244.353Z" fill="#F2F2F2"/>
<g opacity="0.7">
<path opacity="0.7" d="M277.378 145.129V142.217H262.852V155.686C262.852 156.439 263.151 157.162 263.682 157.694C264.213 158.227 264.934 158.526 265.685 158.526H274.546C275.297 158.526 276.017 158.227 276.548 157.694C277.08 157.162 277.378 156.439 277.378 155.686V152.701C278.38 152.701 279.34 152.302 280.049 151.592C280.757 150.882 281.155 149.919 281.155 148.915C281.155 147.911 280.757 146.948 280.049 146.238C279.34 145.528 278.38 145.129 277.378 145.129V145.129ZM277.378 151.245V146.585C277.994 146.585 278.586 146.831 279.021 147.268C279.457 147.705 279.702 148.297 279.702 148.915C279.702 149.533 279.457 150.126 279.021 150.563C278.586 150.999 277.994 151.245 277.378 151.245V151.245Z" fill="url(#paint0_linear)"/>
</g>
<path d="M276.911 145.585C276.229 145.585 275.562 145.788 274.995 146.168C274.428 146.547 273.986 147.087 273.725 147.719C273.464 148.351 273.396 149.046 273.529 149.716C273.662 150.387 273.99 151.003 274.472 151.486C274.955 151.969 275.569 152.299 276.238 152.432C276.907 152.565 277.6 152.497 278.23 152.235C278.86 151.974 279.399 151.531 279.778 150.962C280.157 150.394 280.359 149.725 280.359 149.042C280.359 148.125 279.996 147.246 279.349 146.597C278.702 145.949 277.825 145.585 276.911 145.585V145.585ZM276.911 151.169C276.491 151.169 276.081 151.044 275.732 150.81C275.383 150.577 275.111 150.245 274.95 149.856C274.79 149.467 274.748 149.039 274.83 148.627C274.911 148.214 275.114 147.835 275.41 147.538C275.707 147.24 276.085 147.037 276.497 146.955C276.908 146.873 277.335 146.915 277.723 147.076C278.111 147.237 278.442 147.51 278.675 147.86C278.908 148.21 279.033 148.621 279.033 149.042C279.033 149.606 278.809 150.147 278.411 150.546C278.013 150.945 277.474 151.169 276.911 151.169Z" fill="#6F13E3"/>
<path opacity="0.1" d="M276.911 145.585C276.229 145.585 275.562 145.788 274.995 146.168C274.428 146.547 273.986 147.087 273.725 147.719C273.464 148.351 273.396 149.046 273.529 149.716C273.662 150.387 273.99 151.003 274.472 151.486C274.955 151.969 275.569 152.299 276.238 152.432C276.907 152.565 277.6 152.497 278.23 152.235C278.86 151.974 279.399 151.531 279.778 150.962C280.157 150.394 280.359 149.725 280.359 149.042C280.359 148.125 279.996 147.246 279.349 146.597C278.702 145.949 277.825 145.585 276.911 145.585V145.585ZM276.911 151.169C276.491 151.169 276.081 151.044 275.732 150.81C275.383 150.577 275.111 150.245 274.95 149.856C274.79 149.467 274.748 149.039 274.83 148.627C274.911 148.214 275.114 147.835 275.41 147.538C275.707 147.24 276.085 147.037 276.497 146.955C276.908 146.873 277.335 146.915 277.723 147.076C278.111 147.237 278.442 147.51 278.675 147.86C278.908 148.21 279.033 148.621 279.033 149.042C279.033 149.606 278.809 150.147 278.411 150.546C278.013 150.945 277.474 151.169 276.911 151.169Z" fill="black"/>
<path d="M263.648 142.926H276.911V155.21C276.911 155.902 276.637 156.565 276.149 157.053C275.662 157.542 275 157.817 274.311 157.817H266.248C265.558 157.817 264.897 157.542 264.41 157.053C263.922 156.565 263.648 155.902 263.648 155.21V142.926Z" fill="#6F13E3"/>
<path opacity="0.1" d="M274.523 142.926V155.224C274.523 155.912 274.251 156.571 273.766 157.057C273.281 157.543 272.623 157.817 271.937 157.817H273.264C273.949 157.817 274.607 157.543 275.092 157.057C275.577 156.571 275.85 155.912 275.85 155.224V142.926H274.523Z" fill="black"/>
<path d="M266.265 133.014C266.152 133.018 266.041 133.046 265.939 133.098C265.838 133.149 265.75 133.222 265.68 133.312C265.506 133.628 265.821 133.985 266.109 134.202C266.64 134.603 267.2 134.997 267.562 135.558C267.923 136.118 268.036 136.9 267.641 137.436C267.126 138.137 265.896 138.288 265.776 139.151C265.7 139.705 266.178 140.177 266.662 140.455C267.856 141.141 269.396 141.324 270.262 142.398C270.62 141.66 271.42 141.233 272.218 141.051C273.017 140.869 273.846 140.883 274.655 140.759C274.787 140.757 274.917 140.723 275.034 140.661C275.15 140.599 275.251 140.51 275.327 140.402C275.553 139.942 274.909 139.39 275.131 138.928C275.301 138.576 275.798 138.603 276.161 138.462C276.753 138.233 276.997 137.47 276.829 136.857C276.661 136.244 276.187 135.765 275.688 135.372C274.344 134.313 272.728 133.691 271.094 133.243C270.333 133.034 269.441 132.708 268.651 132.676C267.889 132.646 267.02 132.885 266.265 133.014Z" fill="#EEEEEE"/>
<path d="M173.18 160.956L145.448 247.563" stroke="#E0E0E0" stroke-width="8" stroke-miterlimit="10"/>
<g opacity="0.7">
<path opacity="0.7" d="M194.666 257.317C191.255 257.515 188.216 260.379 188.216 260.379L186.746 256.725L186.626 256.765C187.344 253.614 201.949 188.677 187.329 183.079C176.094 178.777 164.178 173.454 154.841 173.654V158.314H167.93V157.767H178.293C180.279 156.345 177.393 155.366 174.167 154.755C174.298 154.604 174.414 154.441 174.513 154.266L191.109 124.416C191.109 124.416 194.927 118.129 192.473 115.122C190.019 112.115 186.474 122.776 186.474 122.776L172.839 142.459C172.839 142.459 159.078 128.08 150.324 120.93C149.352 119.965 148.256 119.134 147.065 118.461C145.467 117.377 144.257 116.815 143.661 117.035C143.655 117.038 143.65 117.041 143.644 117.044C142.317 116.676 140.947 116.489 139.57 116.489H138.48V114.246C140.923 113.437 143.158 112.097 145.026 110.323C146.894 108.549 148.348 106.383 149.286 103.981C150.824 101.427 151.764 98.5559 152.033 95.5845C152.303 92.6132 151.896 89.6193 150.843 86.8288C151.006 86.8095 151.162 86.7551 151.302 86.6694C151.796 86.3507 151.845 85.6535 151.797 85.0667C151.618 83.097 150.963 81.2008 149.889 79.5419C148.815 77.883 147.353 76.5114 145.632 75.5456C144.25 74.7883 142.668 74.2665 141.649 73.0628C140.773 72.0285 140.406 70.582 139.346 69.7381C138.088 68.7355 136.27 68.9078 134.725 69.3552C133.007 69.8537 131.379 70.6239 129.902 71.6368C128.232 72.7837 126.724 74.2572 124.801 74.892C123.435 75.3431 121.953 75.3341 120.578 75.7579C119.522 76.0931 118.56 76.6712 117.767 77.4461C116.975 78.221 116.374 79.171 116.014 80.2202C115.663 81.3474 115.531 82.5311 115.623 83.7081C114.787 85.1094 114.129 86.6101 113.664 88.1752C113.561 88.2309 113.458 88.2854 113.356 88.3429L113.655 88.2081C112.612 91.7374 112.577 95.4892 113.555 99.0373C114.533 102.585 116.483 105.787 119.186 108.28C121.321 111.066 124.243 113.145 127.572 114.246V116.959C125.197 117.473 122.931 118.403 120.879 119.707L120.876 119.703C120.876 119.703 120.702 119.811 120.404 120.012C120.374 120.032 120.344 120.053 120.315 120.073C118.297 121.446 111.535 126.462 111.764 131.883C111.755 132.091 111.756 132.3 111.767 132.51C111.398 134.077 111.211 135.681 111.21 137.29V176.629C111.205 180.976 112.662 185.198 115.346 188.611C109.656 189.89 106.029 191.824 106.029 193.988C106.058 194.169 106.058 194.354 106.029 194.535C106.029 198.385 117.505 201.505 131.662 201.505C133.374 201.505 135.046 201.459 136.664 201.372L152.66 214.354L127.026 255.632C127.026 255.632 118.573 262.193 125.118 264.38C131.662 266.567 145.024 268.207 145.024 268.207C145.024 268.207 147.206 264.38 144.206 262.739C141.206 261.099 137.116 261.919 137.116 261.919L137.661 258.639C137.661 258.639 182.111 220.368 172.839 207.246C171.065 204.736 169.291 202.146 167.502 199.596L174.499 200.235L176.092 260.313L176.291 260.248C175.891 261.429 173.064 270.336 179.33 268.829C186.039 267.215 198.244 261.523 198.244 261.523C198.244 261.523 198.077 257.118 194.666 257.317ZM167.93 153.94L154.841 150.13V138.905L169.068 154.044C168.368 153.974 167.93 153.94 167.93 153.94Z" fill="url(#paint1_linear)"/>
</g>
<path d="M132.916 114.713C143.519 114.713 152.115 106.096 152.115 95.4673C152.115 84.8381 143.519 76.2215 132.916 76.2215C122.313 76.2215 113.718 84.8381 113.718 95.4673C113.718 106.096 122.313 114.713 132.916 114.713Z" fill="black"/>
<path d="M154.781 139.572L169.433 155.164C169.741 155.492 170.122 155.743 170.546 155.896C170.969 156.048 171.422 156.099 171.869 156.044C172.315 155.988 172.742 155.828 173.116 155.576C173.489 155.324 173.797 154.987 174.016 154.593L190.245 125.405L185.712 123.801L172.38 143.047C172.38 143.047 147.35 116.895 143.849 118.188C140.347 119.481 154.781 139.572 154.781 139.572Z" fill="#6F13E3"/>
<path d="M126.783 193.567L105.185 249.701" stroke="#BDBDBD" stroke-width="5" stroke-miterlimit="10"/>
<path d="M137.449 193.567L159.047 249.701" stroke="#BDBDBD" stroke-width="5" stroke-miterlimit="10"/>
<path d="M132.116 200.785C145.959 200.785 157.181 197.733 157.181 193.968C157.181 190.204 145.959 187.152 132.116 187.152C118.273 187.152 107.052 190.204 107.052 193.968C107.052 197.733 118.273 200.785 132.116 200.785Z" fill="#B84733"/>
<path d="M132.116 200.25C145.959 200.25 157.181 197.198 157.181 193.434C157.181 189.669 145.959 186.617 132.116 186.617C118.273 186.617 107.052 189.669 107.052 193.434C107.052 197.198 118.273 200.25 132.116 200.25Z" fill="#F55F44"/>
<path d="M121.569 205.9L145.218 213.205" stroke="#BDBDBD" stroke-width="5" stroke-miterlimit="10"/>
<path d="M142.663 205.9L119.014 213.205" stroke="#BDBDBD" stroke-width="5" stroke-miterlimit="10"/>
<path d="M132.408 117.653H139.849C143.809 117.653 147.607 119.23 150.408 122.038C153.208 124.845 154.781 128.652 154.781 132.622V172.183H112.118V137.994C112.118 132.599 114.256 127.425 118.061 123.611C121.866 119.796 127.027 117.653 132.408 117.653V117.653Z" fill="#6F13E3"/>
<path d="M112.118 172.183H154.781V195.439H131.05C126.029 195.439 121.213 193.439 117.663 189.88C114.113 186.321 112.118 181.493 112.118 176.46V172.183V172.183Z" fill="#39447A"/>
<path opacity="0.05" d="M112.694 133.702L138.782 158.551H167.58V154.808L142.782 147.591L121.569 121.331C121.569 121.331 111.937 127.297 112.694 133.702Z" fill="black"/>
<path d="M112.694 133.167L138.782 158.016H167.58V154.274L142.782 147.057L121.569 120.797C121.569 120.797 111.937 126.763 112.694 133.167Z" fill="#6F13E3"/>
<path d="M167.58 154.274C167.58 154.274 181.446 155.343 177.713 158.016H167.58V154.274Z" fill="#FDA57D"/>
<path d="M185.712 123.801C185.712 123.801 189.178 113.377 191.578 116.317C193.978 119.257 190.245 125.405 190.245 125.405L185.712 123.801Z" fill="#FDA57D"/>
<path opacity="0.05" d="M112.118 172.183V173.431L154.781 173.52V172.183H112.118Z" fill="black"/>
<path d="M145.305 196.921L174.003 199.542L175.56 258.288L185.834 254.935C185.834 254.935 201.2 188.377 186.548 182.767C171.896 177.157 156.058 169.769 146.601 175.79C137.145 181.81 145.305 196.921 145.305 196.921Z" fill="#39447A"/>
<path opacity="0.1" d="M147.048 178.866C147.048 178.866 162.78 186.885 164.914 195.973Z" fill="black"/>
<path d="M130.25 195.171L152.648 213.348L127.583 253.711L137.982 256.651C137.982 256.651 181.446 219.228 172.38 206.398C163.314 193.567 154.248 178.598 143.049 178.331C131.85 178.064 130.25 195.171 130.25 195.171Z" fill="#39447A"/>
<path opacity="0.05" d="M165.447 136.097L171.046 145.72L172.38 143.047L165.447 136.097Z" fill="black"/>
<path d="M127.583 253.711C127.583 253.711 119.317 260.126 125.717 262.264C132.116 264.403 145.182 266.006 145.182 266.006C145.182 266.006 147.315 262.264 144.382 260.66C141.449 259.057 137.449 259.858 137.449 259.858L137.982 256.651L127.583 253.711Z" fill="#333333"/>
<path d="M175.799 258.098C175.799 258.098 172.168 268.193 178.727 266.615C185.287 265.037 197.222 259.471 197.222 259.471C197.222 259.471 197.058 255.164 193.722 255.358C190.387 255.552 187.416 258.353 187.416 258.353L185.979 254.78L175.799 258.098Z" fill="#333333"/>
<path d="M133.449 108.298H133.449C130.504 108.298 128.117 110.691 128.117 113.644V118.99C128.117 121.942 130.504 124.336 133.449 124.336H133.449C136.395 124.336 138.782 121.942 138.782 118.99V113.644C138.782 110.691 136.395 108.298 133.449 108.298Z" fill="#FDA57D"/>
<path opacity="0.05" d="M133.449 108.832C132.035 108.832 130.679 109.396 129.679 110.398C128.678 111.401 128.117 112.761 128.117 114.178V115.995C131.581 117.137 135.318 117.137 138.782 115.995V114.178C138.782 112.761 138.221 111.401 137.22 110.398C136.22 109.396 134.864 108.832 133.449 108.832Z" fill="black"/>
<path d="M133.449 116.317C142.874 116.317 150.515 108.658 150.515 99.2095C150.515 89.7614 142.874 82.1021 133.449 82.1021C124.025 82.1021 116.384 89.7614 116.384 99.2095C116.384 108.658 124.025 116.317 133.449 116.317Z" fill="#FDA57D"/>
<path opacity="0.05" d="M116.384 98.4333C116.384 98.4333 120.651 99.5354 123.05 94.6746C125.45 89.8137 127.317 87.1623 137.183 90.0346C147.048 92.907 149.033 93.2574 149.507 90.5413C149.831 88.6853 146.323 84.177 144.069 81.508C142.969 80.2059 141.175 79.4291 139.257 79.4291H128.117L121.45 82.5224L116.384 86.9414L115.318 92.907L116.384 98.4333Z" fill="black"/>
<path d="M116.384 97.8987C116.384 97.8987 120.651 99.0008 123.05 94.1399C125.45 89.2791 127.317 86.6277 137.183 89.5C147.048 92.3724 149.033 92.7228 149.507 90.0067C149.831 88.1507 146.323 83.6424 144.069 80.9733C142.969 79.6713 141.175 78.8945 139.257 78.8945H128.117L121.45 81.9878L116.384 86.4068L115.318 92.3724L116.384 97.8987Z" fill="black"/>
<path d="M118.117 101.348C119.075 101.348 119.851 99.7922 119.851 97.873C119.851 95.9539 119.075 94.3981 118.117 94.3981C117.16 94.3981 116.384 95.9539 116.384 97.873C116.384 99.7922 117.16 101.348 118.117 101.348Z" fill="#FDA57D"/>
<path d="M116.879 88.9315C116.483 86.6939 116.095 84.3441 116.815 82.1893C117.167 81.1633 117.755 80.2344 118.53 79.4767C119.305 78.719 120.246 78.1537 121.278 77.8259C122.622 77.4115 124.071 77.4203 125.407 76.9792C127.288 76.3585 128.762 74.9177 130.395 73.7962C131.839 72.8058 133.431 72.0526 135.111 71.5652C136.622 71.1278 138.399 70.9593 139.63 71.9396C140.666 72.7648 141.025 74.1792 141.881 75.1906C142.878 76.3676 144.425 76.8778 145.776 77.6184C147.459 78.5627 148.888 79.9039 149.939 81.526C150.989 83.1481 151.63 85.0023 151.805 86.9282C151.851 87.502 151.804 88.1838 151.321 88.4954C151.021 88.6483 150.683 88.7102 150.348 88.6733C143.528 88.5756 136.699 88.4775 129.907 87.8498C127.795 87.6547 125.68 87.4082 123.561 87.4887C120.281 87.6168 117.079 88.5226 114.216 90.1317" fill="black"/>
<path d="M87.3445 241.482H63.7417C58.9138 241.482 55 245.405 55 250.245V250.245C55 255.085 58.9138 259.008 63.7417 259.008H87.3445C92.1724 259.008 96.0862 255.085 96.0862 250.245C96.0862 245.405 92.1724 241.482 87.3445 241.482Z" fill="#6F13E3"/>
<path d="M208.555 178.91C208.658 178.907 208.756 178.863 208.829 178.788C208.901 178.713 208.941 178.613 208.941 178.509C208.941 178.405 208.901 178.305 208.829 178.231C208.756 178.156 208.658 178.112 208.555 178.108C208.451 178.112 208.353 178.156 208.281 178.231C208.208 178.305 208.168 178.405 208.168 178.509C208.168 178.613 208.208 178.713 208.281 178.788C208.353 178.863 208.451 178.907 208.555 178.91Z" fill="url(#paint2_linear)"/>
<path d="M267.242 160.956L294.973 259.883" stroke="#E0E0E0" stroke-width="8" stroke-miterlimit="10"/>
<path d="M295.086 158.059H145.336V163.909H295.086V158.059Z" fill="#E0E0E0"/>
<path d="M205.044 156.68H183.979C183.021 156.68 182.245 157.458 182.245 158.417V158.417C182.245 159.377 183.021 160.155 183.979 160.155H205.044C206.001 160.155 206.777 159.377 206.777 158.417C206.777 157.458 206.001 156.68 205.044 156.68Z" fill="#535461"/>
<g opacity="0.7">
<path opacity="0.7" d="M250.624 117.937H204.702C200.547 117.937 197.178 121.314 197.178 125.48V152.655C197.178 156.821 200.547 160.198 204.702 160.198H250.624C254.78 160.198 258.149 156.821 258.149 152.655V125.48C258.149 121.314 254.78 117.937 250.624 117.937Z" fill="url(#paint3_linear)"/>
</g>
<path d="M248.867 118.717H205.42C201.468 118.717 198.265 121.928 198.265 125.89V153.025C198.265 156.986 201.468 160.198 205.42 160.198H248.867C252.819 160.198 256.023 156.986 256.023 153.025V125.89C256.023 121.928 252.819 118.717 248.867 118.717Z" fill="#3E3F49"/>
<path d="M249.667 118.717H206.22C202.268 118.717 199.065 121.928 199.065 125.89V153.025C199.065 156.986 202.268 160.198 206.22 160.198H249.667C253.619 160.198 256.823 156.986 256.823 153.025V125.89C256.823 121.928 253.619 118.717 249.667 118.717Z" fill="#535461"/>
<path d="M230.642 141.042C231.673 141.042 232.508 140.205 232.508 139.171C232.508 138.138 231.673 137.3 230.642 137.3C229.611 137.3 228.775 138.138 228.775 139.171C228.775 140.205 229.611 141.042 230.642 141.042Z" fill="#E0E0E0"/>
</g>
<defs>
<linearGradient id="paint0_linear" x1="272.004" y1="158.526" x2="272.004" y2="142.217" gradientUnits="userSpaceOnUse">
<stop stop-color="#808080" stop-opacity="0.25"/>
<stop offset="0.53514" stop-color="#808080" stop-opacity="0.12"/>
<stop offset="1" stop-color="#808080" stop-opacity="0.1"/>
</linearGradient>
<linearGradient id="paint1_linear" x1="47513.4" y1="164891" x2="47513.4" y2="15247.5" gradientUnits="userSpaceOnUse">
<stop stop-color="#808080" stop-opacity="0.25"/>
<stop offset="0.53514" stop-color="#808080" stop-opacity="0.12"/>
<stop offset="1" stop-color="#808080" stop-opacity="0.1"/>
</linearGradient>
<linearGradient id="paint2_linear" x1="768.915" y1="568.71" x2="768.915" y2="566.304" gradientUnits="userSpaceOnUse">
<stop stop-color="#808080" stop-opacity="0.25"/>
<stop offset="0.53514" stop-color="#808080" stop-opacity="0.12"/>
<stop offset="1" stop-color="#808080" stop-opacity="0.1"/>
</linearGradient>
<linearGradient id="paint3_linear" x1="39678.3" y1="14536.4" x2="39678.3" y2="7854.93" gradientUnits="userSpaceOnUse">
<stop stop-color="#808080" stop-opacity="0.25"/>
<stop offset="0.53514" stop-color="#808080" stop-opacity="0.12"/>
<stop offset="1" stop-color="#808080" stop-opacity="0.1"/>
</linearGradient>
<clipPath id="clip0">
<rect width="241" height="200" fill="white" transform="translate(55 69)"/>
</clipPath>
</defs>
</svg>
